<svg xmlns="http://www.w3.org/2000/svg" viewBox="0 0 200 190"><style>.eo{stroke:var(--l-line,#241a5e);stroke-linejoin:round;stroke-linecap:round}.elit{fill:var(--l-lit,#fff4cf);opacity:.3}.esh{fill:var(--l-shade,#4a3a8c);opacity:.22}.ew{fill:var(--l-windows,transparent);opacity:var(--l-windows-opacity,0)}.esd{fill:var(--l-shadow-color,#10083a);opacity:var(--l-shadow-opacity,.28)}</style><defs><clipPath id="node_11_clip"><rect x="-82" y="-27.9" width="164" height="64.8" rx="12"/><rect x="-82" y="-27.9" width="164" height="55.8" rx="12"/><rect x="-62" y="-54" width="124" height="50" rx="3"/><polygon points="-44,-54 -44,-78 -12,-54"/><polygon points="-4,-54 -4,-78 28,-54"/><polygon points="36,-54 36,-78 68,-54"/><rect x="-52" y="-116" width="15" height="64" rx="2"/><rect x="-54" y="-116" width="19" height="7" rx="2"/><rect x="34" y="-98" width="15" height="46" rx="2"/><rect x="32" y="-98" width="19" height="7" rx="2"/><polygon points="15.9,-29.9 15.9,-26.1 11.7,-24.7 10.6,-22 12.6,-18.1 9.9,-15.4 6,-17.4 3.3,-16.3 1.9,-12.1 -1.9,-12.1 -3.3,-16.3 -6,-17.4 -9.9,-15.4 -12.6,-18.1 -10.6,-22 -11.7,-24.7 -15.9,-26.1 -15.9,-29.9 -11.7,-31.3 -10.6,-34 -12.6,-37.9 -9.9,-40.6 -6,-38.6 -3.3,-39.7 -1.9,-43.9 1.9,-43.9 3.3,-39.7 6,-38.6 9.9,-40.6 12.6,-37.9 10.6,-34 11.7,-31.3"/><circle cx="0" cy="-28" r="4.8"/><path d="M30,-4 v-16 a10,10 0 0 1 20,0 v16z"/><rect x="-52" y="-46" width="14" height="10" rx="2"/><rect x="-36" y="-46" width="14" height="10" rx="2"/><rect x="14" y="-46" width="14" height="10" rx="2"/></clipPath></defs><g id="node_11_shadow" transform="translate(100 150)"><ellipse cx="8" cy="6" rx="88" ry="30" class="esd"/></g><g id="node_11_base" transform="translate(100 150)"><rect x="-82" y="-27.9" width="164" height="64.8" rx="12" fill="#9b968c" class="eo" stroke-width="4.5"/><rect x="-82" y="-27.9" width="164" height="55.8" rx="12" fill="#c6c1b6" class="eo" stroke-width="4.5"/><path d="M-49.2,5.6L-8.2,5.6" fill="none" stroke-linecap="round" style="stroke:#9b968c" stroke-width="1.2"/><rect x="-62" y="-54" width="124" height="50" rx="3" fill="#7d8fb5" class="eo" stroke-width="4.5"/><path d="M-58,-42L58,-42" fill="none" stroke-linecap="round" style="stroke:#5d6e95" stroke-width="1.2"/><path d="M-58,-30L58,-30" fill="none" stroke-linecap="round" style="stroke:#5d6e95" stroke-width="1.2"/><path d="M-58,-18L58,-18" fill="none" stroke-linecap="round" style="stroke:#5d6e95" stroke-width="1.2"/><polygon points="-44,-54 -44,-78 -12,-54" fill="#a8b4d8" class="eo" stroke-width="4.5"/><polygon points="-4,-54 -4,-78 28,-54" fill="#a8b4d8" class="eo" stroke-width="4.5"/><polygon points="36,-54 36,-78 68,-54" fill="#a8b4d8" class="eo" stroke-width="4.5"/><rect x="-52" y="-116" width="15" height="64" rx="2" fill="#aab4f0" class="eo" stroke-width="4.5"/><rect x="-54" y="-116" width="19" height="7" rx="2" fill="#3a2a7a" class="eo" stroke-width="2.6"/><rect x="34" y="-98" width="15" height="46" rx="2" fill="#aab4f0" class="eo" stroke-width="4.5"/><rect x="32" y="-98" width="19" height="7" rx="2" fill="#3a2a7a" class="eo" stroke-width="2.6"/><circle cx="-44" cy="-128" r="7" fill="#fff" opacity=".9"/><circle cx="-37" cy="-141" r="9" fill="#fff" opacity=".9"/><circle cx="42" cy="-112" r="6" fill="#fff" opacity=".9"/><circle cx="47" cy="-124" r="8" fill="#fff" opacity=".9"/><polygon points="15.9,-29.9 15.9,-26.1 11.7,-24.7 10.6,-22 12.6,-18.1 9.9,-15.4 6,-17.4 3.3,-16.3 1.9,-12.1 -1.9,-12.1 -3.3,-16.3 -6,-17.4 -9.9,-15.4 -12.6,-18.1 -10.6,-22 -11.7,-24.7 -15.9,-26.1 -15.9,-29.9 -11.7,-31.3 -10.6,-34 -12.6,-37.9 -9.9,-40.6 -6,-38.6 -3.3,-39.7 -1.9,-43.9 1.9,-43.9 3.3,-39.7 6,-38.6 9.9,-40.6 12.6,-37.9 10.6,-34 11.7,-31.3" fill="#2fb8a8" class="eo" stroke-width="2.6"/><circle cx="0" cy="-28" r="4.8" fill="#fff4d2" class="eo" stroke-width="2.6"/><path d="M30,-4 v-16 a10,10 0 0 1 20,0 v16z" fill="#3a2a7a" class="eo" stroke-width="2.6"/><rect x="-52" y="-46" width="14" height="10" rx="2" fill="#9fdcf2" class="eo" stroke-width="2.6"/><rect x="-36" y="-46" width="14" height="10" rx="2" fill="#9fdcf2" class="eo" stroke-width="2.6"/><rect x="14" y="-46" width="14" height="10" rx="2" fill="#9fdcf2" class="eo" stroke-width="2.6"/></g><g id="node_11_lit" transform="translate(100 150)" clip-path="url(#node_11_clip)"><polygon points="-68,-148 -25.6,-148 -48.6,36 -68,36" class="elit"/></g><g id="node_11_shade" transform="translate(100 150)" clip-path="url(#node_11_clip)"><polygon points="23,-148 68,-148 68,36 0,36" class="esh"/></g><g id="node_11_windows" transform="translate(100 150)"><rect x="-52" y="-46" width="14" height="10" rx="2" class="ew"/><rect x="-36" y="-46" width="14" height="10" rx="2" class="ew"/><rect x="14" y="-46" width="14" height="10" rx="2" class="ew"/></g></svg>