<svg xmlns="http://www.w3.org/2000/svg" viewBox="0 0 200 190"><style>.eo{stroke:var(--l-line,#241a5e);stroke-linejoin:round;stroke-linecap:round}.elit{fill:var(--l-lit,#fff4cf);opacity:.3}.esh{fill:var(--l-shade,#4a3a8c);opacity:.22}.ew{fill:var(--l-windows,transparent);opacity:var(--l-windows-opacity,0)}.esd{fill:var(--l-shadow-color,#10083a);opacity:var(--l-shadow-opacity,.28)}</style><defs><clipPath id="node_02_clip"><ellipse cx="0" cy="11" rx="68" ry="22"/><rect x="-68" y="0" width="136" height="11" rx="0"/><ellipse cx="0" cy="0" rx="68" ry="22"/><ellipse cx="0" cy="0" rx="52" ry="16"/><rect x="30" y="-44" width="44" height="34" rx="4"/><polygon points="22,-44 82,-44 52,-96"/><polygon points="52,-96 68,-44 52,-44"/><polygon points="52,-116 72,-109 52,-102"/><rect x="45" y="-30" width="14" height="20" rx="3"/><circle cx="-34" cy="-36" r="7"/><polygon points="-40,-29 -28,-29 -31,-12 -37,-12"/></clipPath></defs><g id="node_02_shadow" transform="translate(100 150)"><ellipse cx="8" cy="6" rx="86" ry="29" class="esd"/></g><g id="node_02_base" transform="translate(100 150)"><path transform="translate(8 7)" d="M86.2,0 Q86.2,0 86.2,8.5 Q86.2,17 70.5,23.4 Q54.8,29.8 33.5,33.9 Q12.3,38 -9.7,34.7 Q-31.7,31.4 -49.2,26.8 Q-66.6,22.2 -80.9,15.5 Q-95.1,8.8 -94.4,0.1 Q-93.8,-8.7 -80.5,-15.5 Q-67.3,-22.4 -50.9,-28.2 Q-34.4,-34.1 -11.7,-34.1 Q11,-34.2 33.6,-32.4 Q56.1,-30.5 66.3,-22.8 Q76.6,-15.1 81.4,-7.5Z" fill="#66993b" opacity=".75"/><path transform="translate(3 0)" d="M98.4,0 Q98.4,0 85.1,7.1 Q71.9,14.2 62.7,21.7 Q53.5,29.1 31.8,30.2 Q10.1,31.3 -12.5,33 Q-35,34.7 -47.9,27.5 Q-60.9,20.3 -77.4,14.5 Q-94,8.7 -92.3,0.2 Q-90.6,-8.4 -81.4,-16.2 Q-72.2,-24 -53.6,-29.4 Q-35.1,-34.8 -12.4,-33.3 Q10.3,-31.8 29.9,-29.4 Q49.5,-26.9 66.2,-21.6 Q83,-16.4 90.7,-8.2Z" fill="#a6d86a"/><path d="M29.2,-8.4l-2,-6M32.2,-8.4l2,-6" stroke="#66993b" stroke-width="1.2" stroke-linecap="round" fill="none"/><path d="M-21.3,9.6l-2,-6M-18.3,9.6l2,-6" stroke="#66993b" stroke-width="1.2" stroke-linecap="round" fill="none"/><path d="M38.6,-16.3l-2,-6M41.6,-16.3l2,-6" stroke="#66993b" stroke-width="1.2" stroke-linecap="round" fill="none"/><ellipse cx="0" cy="11" rx="68" ry="22" fill="#d070c0" class="eo" stroke-width="4.5"/><rect x="-68" y="0" width="136" height="11" rx="0" fill="#d070c0"/><ellipse cx="0" cy="0" rx="68" ry="22" fill="#eaf8ff" class="eo" stroke-width="4.5"/><ellipse cx="0" cy="0" rx="52" ry="16" fill="#a3d5ea" class="eo" stroke-width="2.6"/><path d="M-34,4 Q-12,-8 20,6" fill="none" class="eo" stroke-width="2.6"/><path d="M-30,-6L-6,-2" fill="none" stroke-linecap="round" style="stroke:#6ab7d8" stroke-width="1.2"/><path d="M14,6L38,2" fill="none" stroke-linecap="round" style="stroke:#6ab7d8" stroke-width="1.2"/><rect x="30" y="-44" width="44" height="34" rx="4" fill="#fff4d2" class="eo" stroke-width="4.5"/><polygon points="22,-44 82,-44 52,-96" fill="#d070c0" class="eo" stroke-width="4.5"/><polygon points="52,-96 68,-44 52,-44" fill="#fff4d2"/><path d="M52,-96L52,-116" fill="none" stroke-linecap="round" style="stroke:var(--l-line,#241a5e)" stroke-width="2.6"/><polygon points="52,-116 72,-109 52,-102" fill="#5aa0e0" class="eo" stroke-width="2.6"/><rect x="45" y="-30" width="14" height="20" rx="3" fill="#5aa0e0" class="eo" stroke-width="2.6"/><circle cx="-34" cy="-36" r="7" fill="#ffd2a8" class="eo" stroke-width="2.6"/><polygon points="-40,-29 -28,-29 -31,-12 -37,-12" fill="#2fb8a8" class="eo" stroke-width="2.6"/><path d="M-35,-12L-42,0" fill="none" stroke-linecap="round" style="stroke:var(--l-line,#241a5e)" stroke-width="3"/><path d="M-31,-12L-22,-6" fill="none" stroke-linecap="round" style="stroke:var(--l-line,#241a5e)" stroke-width="3"/><path d="M-37,-24L-50,-30" fill="none" stroke-linecap="round" style="stroke:var(--l-line,#241a5e)" stroke-width="3"/><path d="M-30,-24L-18,-32" fill="none" stroke-linecap="round" style="stroke:var(--l-line,#241a5e)" stroke-width="3"/></g><g id="node_02_lit" transform="translate(100 150)" clip-path="url(#node_02_clip)"><polygon points="-86,-122 -32.2,-122 -62.1,44 -86,44" class="elit"/></g><g id="node_02_shade" transform="translate(100 150)" clip-path="url(#node_02_clip)"><polygon points="30.9,-122 88,-122 88,44 1,44" class="esh"/></g><g id="node_02_windows" transform="translate(100 150)"><rect x="32" y="-38" width="8" height="8" rx="2" class="ew"/><rect x="64" y="-38" width="8" height="8" rx="2" class="ew"/></g></svg>