<svg xmlns="http://www.w3.org/2000/svg" viewBox="0 0 120 100"><style>.eo{stroke:var(--l-line,#241a5e);stroke-linejoin:round;stroke-linecap:round}.elit{fill:var(--l-lit,#fff4cf);opacity:.3}.esh{fill:var(--l-shade,#4a3a8c);opacity:.22}.ew{fill:var(--l-windows,transparent);opacity:var(--l-windows-opacity,0)}.esd{fill:var(--l-shadow-color,#10083a);opacity:var(--l-shadow-opacity,.28)}</style><defs><clipPath id="prop_12_clip"><path d="M-24,0 v-26 a24,24 0 0 1 48,0 v26 h-14 v-26 a10,10 0 0 0 -20,0 v26z"/><rect x="-24" y="-8" width="14" height="8" rx="1"/><rect x="10" y="-8" width="14" height="8" rx="1"/></clipPath></defs><g id="prop_12_shadow" transform="translate(60 78)"><ellipse cx="8" cy="6" rx="42" ry="14" class="esd"/></g><g id="prop_12_base" transform="translate(60 78)"><path d="M-24,0 v-26 a24,24 0 0 1 48,0 v26 h-14 v-26 a10,10 0 0 0 -20,0 v26z" fill="#d070c0" class="eo" stroke-width="4.5"/><rect x="-24" y="-8" width="14" height="8" rx="1" fill="#e9e4d6" class="eo" stroke-width="2.6"/><rect x="10" y="-8" width="14" height="8" rx="1" fill="#e9e4d6" class="eo" stroke-width="2.6"/></g><g id="prop_12_lit" transform="translate(60 78)" clip-path="url(#prop_12_clip)"><polygon points="-40,-54 -14.4,-54 -27.4,34 -40,34" class="elit"/></g><g id="prop_12_shade" transform="translate(60 78)" clip-path="url(#prop_12_clip)"><polygon points="13,-54 40,-54 40,34 0,34" class="esh"/></g></svg>