<svg xmlns="http://www.w3.org/2000/svg" viewBox="0 0 120 100"><style>.eo{stroke:var(--l-line,#241a5e);stroke-linejoin:round;stroke-linecap:round}.elit{fill:var(--l-lit,#fff4cf);opacity:.3}.esh{fill:var(--l-shade,#4a3a8c);opacity:.22}.ew{fill:var(--l-windows,transparent);opacity:var(--l-windows-opacity,0)}.esd{fill:var(--l-shadow-color,#10083a);opacity:var(--l-shadow-opacity,.28)}</style><defs><clipPath id="prop_14_clip"><polygon points="-14,-34 14,-34 10,-48 -10,-48"/><rect x="-7" y="-34" width="14" height="34" rx="2"/></clipPath></defs><g id="prop_14_shadow" transform="translate(60 78)"><ellipse cx="8" cy="6" rx="42" ry="14" class="esd"/></g><g id="prop_14_base" transform="translate(60 78)"><polygon points="-14,-34 14,-34 10,-48 -10,-48" fill="#c6c1b6" class="eo" stroke-width="4.5"/><rect x="-7" y="-34" width="14" height="34" rx="2" fill="#e9e4d6" class="eo" stroke-width="4.5"/><path d="M-7,-26L7,-22" fill="none" stroke-linecap="round" style="stroke:#c6c1b6" stroke-width="1.2"/><path d="M-7,-16L7,-12" fill="none" stroke-linecap="round" style="stroke:#c6c1b6" stroke-width="1.2"/><path d="M-7,-6L7,-2" fill="none" stroke-linecap="round" style="stroke:#c6c1b6" stroke-width="1.2"/></g><g id="prop_14_lit" transform="translate(60 78)" clip-path="url(#prop_14_clip)"><polygon points="-40,-52 -14.4,-52 -27.4,34 -40,34" class="elit"/></g><g id="prop_14_shade" transform="translate(60 78)" clip-path="url(#prop_14_clip)"><polygon points="13,-52 40,-52 40,34 0,34" class="esh"/></g></svg>