<svg xmlns="http://www.w3.org/2000/svg" viewBox="0 0 390 180"><style>.eo{stroke:var(--l-line,#241a5e);stroke-linejoin:round;stroke-linecap:round}.elit{fill:var(--l-lit,#fff4cf);opacity:.3}.esh{fill:var(--l-shade,#4a3a8c);opacity:.22}.ew{fill:var(--l-windows,transparent);opacity:var(--l-windows-opacity,0)}.esd{fill:var(--l-shadow-color,#10083a);opacity:var(--l-shadow-opacity,.28)}</style><rect x="-6" y="41" width="58" height="135" fill="#6c82a0" class="eo" stroke-width="2.6"/><rect x="2" y="65" width="6" height="8" fill="#a8bdd2" opacity=".7"/><rect x="16" y="65" width="6" height="8" fill="#a8bdd2" opacity=".7"/><rect x="30" y="65" width="6" height="8" fill="#a8bdd2" opacity=".7"/><rect x="2" y="83" width="6" height="8" fill="#a8bdd2" opacity=".7"/><rect x="16" y="83" width="6" height="8" fill="#a8bdd2" opacity=".7"/><rect x="30" y="83" width="6" height="8" fill="#a8bdd2" opacity=".7"/><rect x="2" y="101" width="6" height="8" fill="#a8bdd2" opacity=".7"/><rect x="16" y="101" width="6" height="8" fill="#a8bdd2" opacity=".7"/><rect x="30" y="101" width="6" height="8" fill="#a8bdd2" opacity=".7"/><rect x="2" y="119" width="6" height="8" fill="#a8bdd2" opacity=".7"/><rect x="16" y="119" width="6" height="8" fill="#a8bdd2" opacity=".7"/><rect x="30" y="119" width="6" height="8" fill="#a8bdd2" opacity=".7"/><rect x="2" y="137" width="6" height="8" fill="#a8bdd2" opacity=".7"/><rect x="16" y="137" width="6" height="8" fill="#a8bdd2" opacity=".7"/><rect x="30" y="137" width="6" height="8" fill="#a8bdd2" opacity=".7"/><rect x="2" y="155" width="6" height="8" fill="#a8bdd2" opacity=".7"/><rect x="16" y="155" width="6" height="8" fill="#a8bdd2" opacity=".7"/><rect x="30" y="155" width="6" height="8" fill="#a8bdd2" opacity=".7"/><path d="M63,176 V65 L121,47 V176Z" fill="#7a93ae" class="eo" stroke-width="2.6"/><rect x="71" y="71" width="6" height="8" fill="#a8bdd2" opacity=".7"/><rect x="85" y="71" width="6" height="8" fill="#a8bdd2" opacity=".7"/><rect x="99" y="71" width="6" height="8" fill="#a8bdd2" opacity=".7"/><rect x="71" y="89" width="6" height="8" fill="#a8bdd2" opacity=".7"/><rect x="85" y="89" width="6" height="8" fill="#a8bdd2" opacity=".7"/><rect x="99" y="89" width="6" height="8" fill="#a8bdd2" opacity=".7"/><rect x="71" y="107" width="6" height="8" fill="#a8bdd2" opacity=".7"/><rect x="85" y="107" width="6" height="8" fill="#a8bdd2" opacity=".7"/><rect x="99" y="107" width="6" height="8" fill="#a8bdd2" opacity=".7"/><rect x="71" y="125" width="6" height="8" fill="#a8bdd2" opacity=".7"/><rect x="85" y="125" width="6" height="8" fill="#a8bdd2" opacity=".7"/><rect x="99" y="125" width="6" height="8" fill="#a8bdd2" opacity=".7"/><rect x="71" y="143" width="6" height="8" fill="#a8bdd2" opacity=".7"/><rect x="85" y="143" width="6" height="8" fill="#a8bdd2" opacity=".7"/><rect x="99" y="143" width="6" height="8" fill="#a8bdd2" opacity=".7"/><path d="M128,176 V71 H150.05 V47 H177 V176Z" fill="#5f7694" class="eo" stroke-width="2.6"/><rect x="136" y="71" width="6" height="8" fill="#a8bdd2" opacity=".7"/><rect x="150" y="71" width="6" height="8" fill="#a8bdd2" opacity=".7"/><rect x="164" y="71" width="6" height="8" fill="#a8bdd2" opacity=".7"/><rect x="136" y="89" width="6" height="8" fill="#a8bdd2" opacity=".7"/><rect x="150" y="89" width="6" height="8" fill="#a8bdd2" opacity=".7"/><rect x="164" y="89" width="6" height="8" fill="#a8bdd2" opacity=".7"/><rect x="136" y="107" width="6" height="8" fill="#a8bdd2" opacity=".7"/><rect x="150" y="107" width="6" height="8" fill="#a8bdd2" opacity=".7"/><rect x="164" y="107" width="6" height="8" fill="#a8bdd2" opacity=".7"/><rect x="136" y="125" width="6" height="8" fill="#a8bdd2" opacity=".7"/><rect x="150" y="125" width="6" height="8" fill="#a8bdd2" opacity=".7"/><rect x="164" y="125" width="6" height="8" fill="#a8bdd2" opacity=".7"/><rect x="136" y="143" width="6" height="8" fill="#a8bdd2" opacity=".7"/><rect x="150" y="143" width="6" height="8" fill="#a8bdd2" opacity=".7"/><rect x="164" y="143" width="6" height="8" fill="#a8bdd2" opacity=".7"/><rect x="188" y="89" width="64" height="87" fill="#8aa0b8" class="eo" stroke-width="2.6"/><path d="M192,89 a28.0,18 0 0 1 56,0z" fill="#a8bdd2" class="eo" stroke-width="2.6"/><rect x="196" y="113" width="6" height="8" fill="#a8bdd2" opacity=".7"/><rect x="210" y="113" width="6" height="8" fill="#a8bdd2" opacity=".7"/><rect x="224" y="113" width="6" height="8" fill="#a8bdd2" opacity=".7"/><rect x="238" y="113" width="6" height="8" fill="#a8bdd2" opacity=".7"/><rect x="196" y="131" width="6" height="8" fill="#a8bdd2" opacity=".7"/><rect x="210" y="131" width="6" height="8" fill="#a8bdd2" opacity=".7"/><rect x="224" y="131" width="6" height="8" fill="#a8bdd2" opacity=".7"/><rect x="238" y="131" width="6" height="8" fill="#a8bdd2" opacity=".7"/><rect x="196" y="149" width="6" height="8" fill="#a8bdd2" opacity=".7"/><rect x="210" y="149" width="6" height="8" fill="#a8bdd2" opacity=".7"/><rect x="224" y="149" width="6" height="8" fill="#a8bdd2" opacity=".7"/><rect x="238" y="149" width="6" height="8" fill="#a8bdd2" opacity=".7"/><rect x="257" y="74" width="58" height="102" fill="#6a7fa2" class="eo" stroke-width="2.6"/><rect x="276.0" y="56" width="20" height="16" rx="4" fill="#a8bdd2" class="eo" stroke-width="2.6"/><path d="M280.0,74 v10 M292.0,74 v10" class="eo" stroke-width="1.2"/><rect x="265" y="98" width="6" height="8" fill="#a8bdd2" opacity=".7"/><rect x="279" y="98" width="6" height="8" fill="#a8bdd2" opacity=".7"/><rect x="293" y="98" width="6" height="8" fill="#a8bdd2" opacity=".7"/><rect x="265" y="116" width="6" height="8" fill="#a8bdd2" opacity=".7"/><rect x="279" y="116" width="6" height="8" fill="#a8bdd2" opacity=".7"/><rect x="293" y="116" width="6" height="8" fill="#a8bdd2" opacity=".7"/><rect x="265" y="134" width="6" height="8" fill="#a8bdd2" opacity=".7"/><rect x="279" y="134" width="6" height="8" fill="#a8bdd2" opacity=".7"/><rect x="293" y="134" width="6" height="8" fill="#a8bdd2" opacity=".7"/><rect x="265" y="152" width="6" height="8" fill="#a8bdd2" opacity=".7"/><rect x="279" y="152" width="6" height="8" fill="#a8bdd2" opacity=".7"/><rect x="293" y="152" width="6" height="8" fill="#a8bdd2" opacity=".7"/><rect x="321" y="44" width="46" height="132" fill="#6c82a0" class="eo" stroke-width="2.6"/><path d="M325,44 L344.0,14 L363,44 z" fill="#a8bdd2" class="eo" stroke-width="2.6"/><rect x="329" y="68" width="6" height="8" fill="#a8bdd2" opacity=".7"/><rect x="343" y="68" width="6" height="8" fill="#a8bdd2" opacity=".7"/><rect x="329" y="86" width="6" height="8" fill="#a8bdd2" opacity=".7"/><rect x="343" y="86" width="6" height="8" fill="#a8bdd2" opacity=".7"/><rect x="329" y="104" width="6" height="8" fill="#a8bdd2" opacity=".7"/><rect x="343" y="104" width="6" height="8" fill="#a8bdd2" opacity=".7"/><rect x="329" y="122" width="6" height="8" fill="#a8bdd2" opacity=".7"/><rect x="343" y="122" width="6" height="8" fill="#a8bdd2" opacity=".7"/><rect x="329" y="140" width="6" height="8" fill="#a8bdd2" opacity=".7"/><rect x="343" y="140" width="6" height="8" fill="#a8bdd2" opacity=".7"/><rect x="329" y="158" width="6" height="8" fill="#a8bdd2" opacity=".7"/><rect x="343" y="158" width="6" height="8" fill="#a8bdd2" opacity=".7"/><rect x="371" y="62" width="63" height="114" fill="#7a93ae" class="eo" stroke-width="2.6"/><rect x="379" y="86" width="6" height="8" fill="#a8bdd2" opacity=".7"/><rect x="393" y="86" width="6" height="8" fill="#a8bdd2" opacity=".7"/><rect x="407" y="86" width="6" height="8" fill="#a8bdd2" opacity=".7"/><rect x="421" y="86" width="6" height="8" fill="#a8bdd2" opacity=".7"/><rect x="379" y="104" width="6" height="8" fill="#a8bdd2" opacity=".7"/><rect x="393" y="104" width="6" height="8" fill="#a8bdd2" opacity=".7"/><rect x="407" y="104" width="6" height="8" fill="#a8bdd2" opacity=".7"/><rect x="421" y="104" width="6" height="8" fill="#a8bdd2" opacity=".7"/><rect x="379" y="122" width="6" height="8" fill="#a8bdd2" opacity=".7"/><rect x="393" y="122" width="6" height="8" fill="#a8bdd2" opacity=".7"/><rect x="407" y="122" width="6" height="8" fill="#a8bdd2" opacity=".7"/><rect x="421" y="122" width="6" height="8" fill="#a8bdd2" opacity=".7"/><rect x="379" y="140" width="6" height="8" fill="#a8bdd2" opacity=".7"/><rect x="393" y="140" width="6" height="8" fill="#a8bdd2" opacity=".7"/><rect x="407" y="140" width="6" height="8" fill="#a8bdd2" opacity=".7"/><rect x="421" y="140" width="6" height="8" fill="#a8bdd2" opacity=".7"/><rect x="379" y="158" width="6" height="8" fill="#a8bdd2" opacity=".7"/><rect x="393" y="158" width="6" height="8" fill="#a8bdd2" opacity=".7"/><rect x="407" y="158" width="6" height="8" fill="#a8bdd2" opacity=".7"/><rect x="421" y="158" width="6" height="8" fill="#a8bdd2" opacity=".7"/><rect x="-4" y="170" width="398" height="14" fill="#44566c"/></svg>