<svg xmlns="http://www.w3.org/2000/svg" viewBox="0 0 360 720" width="360" height="720" ><defs><linearGradient id="l1" x1="0" y1="0" x2="0" y2="1"><stop offset="0" stop-color="#5a3763"/><stop offset="0.34" stop-color="#a24f62"/><stop offset="0.58" stop-color="#b8664e"/><stop offset="1" stop-color="#b8664e"/></linearGradient><radialGradient id="r2"><stop offset="0" stop-color="#ffb066" stop-opacity="0.42"/><stop offset="1" stop-color="#ffb066" stop-opacity="0"/></radialGradient><radialGradient id="r3"><stop offset="0" stop-color="#ffb066" stop-opacity="0.3"/><stop offset="1" stop-color="#ffb066" stop-opacity="0"/></radialGradient><radialGradient id="r4"><stop offset="0" stop-color="#ffb066" stop-opacity="0.5"/><stop offset="1" stop-color="#ffb066" stop-opacity="0"/></radialGradient><radialGradient id="r5"><stop offset="0" stop-color="#ffb066" stop-opacity="0.5"/><stop offset="1" stop-color="#ffb066" stop-opacity="0"/></radialGradient><linearGradient id="l6" x1="0" y1="0" x2="0" y2="1"><stop offset="0" stop-color="#4c7c4a"/><stop offset="0.55" stop-color="#3d6a3f"/><stop offset="1" stop-color="#35603a"/></linearGradient><radialGradient id="r7"><stop offset="0" stop-color="#ffb066" stop-opacity="0.12"/><stop offset="1" stop-color="#ffb066" stop-opacity="0"/></radialGradient><filter id="bl6" x="-50%" y="-50%" width="200%" height="200%"><feGaussianBlur stdDeviation="6"/></filter><filter id="bl14" x="-50%" y="-50%" width="200%" height="200%"><feGaussianBlur stdDeviation="14"/></filter><filter id="bl3" x="-30%" y="-30%" width="160%" height="160%"><feGaussianBlur stdDeviation="3"/></filter></defs><path d="M0,300 H360 V720 H0Z" fill="url(#l6)"/><g opacity=".07"><rect x="0" y="300" width="30" height="720" fill="#fff"/><rect x="60" y="300" width="30" height="720" fill="#fff"/><rect x="120" y="300" width="30" height="720" fill="#fff"/><rect x="180" y="300" width="30" height="720" fill="#fff"/><rect x="240" y="300" width="30" height="720" fill="#fff"/><rect x="300" y="300" width="30" height="720" fill="#fff"/></g><g opacity=".06"><rect x="30" y="300" width="30" height="720" fill="#000"/><rect x="90" y="300" width="30" height="720" fill="#000"/><rect x="150" y="300" width="30" height="720" fill="#000"/><rect x="210" y="300" width="30" height="720" fill="#000"/><rect x="270" y="300" width="30" height="720" fill="#000"/><rect x="330" y="300" width="30" height="720" fill="#000"/></g><circle cx="330" cy="330" r="170" fill="url(#r7)"/><g fill="none" stroke="#e8f2d0" stroke-opacity=".13" stroke-width="3"><ellipse cx="180" cy="470" rx="120" ry="52"/><path d="M-10,470 H370"/><rect x="40" y="320" width="280" height="70" rx="4" transform="skewX(0)"/></g><g transform="translate(284,326)" fill="none" stroke="#f0d8b8" stroke-opacity=".45" stroke-width="3.5" stroke-linecap="round"><path d="M0,34 V0 H52 V34"/><path d="M8,4 V32 M17,4 V32 M26,4 V32 M35,4 V32 M44,4 V32" stroke-width=".8" opacity=".6"/></g><path d="M-20,650 Q180,600 380,650 V720 H-20Z" fill="#9a4e3a" opacity=".9"/><path d="M-20,650 Q180,600 380,650" fill="none" stroke="#e8b28a" stroke-opacity=".16" stroke-width="3"/><path d="M-20,676 Q180,626 380,676" fill="none" stroke="#e8b28a" stroke-opacity=".12" stroke-width="2"/></svg>