<svg xmlns="http://www.w3.org/2000/svg" viewBox="0 0 360 600" width="360" height="600" ><defs><linearGradient id="sky" x1="0" y1="0" x2="0" y2="1"><stop offset="0" stop-color="#a9d2dc"/><stop offset="1" stop-color="#eaf5ee"/></linearGradient>
<linearGradient id="bld" x1="0" y1="0" x2="1" y2="0"><stop offset="0" stop-color="#6f8f96"/><stop offset="1" stop-color="#5b7b86"/></linearGradient>
<linearGradient id="brk" x1="0" y1="0" x2="0" y2="1"><stop offset="0" stop-color="#c0805c"/><stop offset="1" stop-color="#a5694b"/></linearGradient><filter id="wob" x="-5%" y="-5%" width="110%" height="110%"><feTurbulence type="fractalNoise" baseFrequency=".035" numOctaves="2" seed="4" result="n"/><feDisplacementMap in="SourceGraphic" in2="n" scale="3.2"/></filter></defs><g filter="url(#wob)"><rect x="40" y="230" width="22" height="110" fill="url(#brk)" stroke="#3a2610" stroke-width="2.4" stroke-opacity=".7"/><rect x="37" y="226" width="28" height="9" fill="#8a5538" stroke="#3a2610" stroke-width="2" stroke-opacity=".7"/></g><g fill="#fff" opacity=".8"><circle cx="54" cy="206" r="11"/><circle cx="66" cy="190" r="14"/><circle cx="54" cy="168" r="16"/></g><g filter="url(#wob)"><rect x="150" y="230" width="22" height="110" fill="url(#brk)" stroke="#3a2610" stroke-width="2.4" stroke-opacity=".7"/><rect x="147" y="226" width="28" height="9" fill="#8a5538" stroke="#3a2610" stroke-width="2" stroke-opacity=".7"/></g><g fill="#fff" opacity=".8"><circle cx="164" cy="206" r="11"/><circle cx="176" cy="190" r="14"/><circle cx="164" cy="168" r="16"/></g><g filter="url(#wob)"><rect x="312" y="230" width="22" height="110" fill="url(#brk)" stroke="#3a2610" stroke-width="2.4" stroke-opacity=".7"/><rect x="309" y="226" width="28" height="9" fill="#8a5538" stroke="#3a2610" stroke-width="2" stroke-opacity=".7"/></g><g fill="#fff" opacity=".8"><circle cx="326" cy="206" r="11"/><circle cx="338" cy="190" r="14"/><circle cx="326" cy="168" r="16"/></g><g filter="url(#wob)"><path d="M0,350 V300 H70 V270 L110 296 V270 L150 296 V270 L190 296 V340 H360 V350Z" fill="url(#bld)" stroke="#3a2610" stroke-width="2.6" stroke-opacity=".7"/><rect x="14" y="316" width="18" height="14" rx="3" fill="#fbe08a" stroke="#3a2610" stroke-width="1.5" stroke-opacity=".6"/><rect x="48" y="316" width="18" height="14" rx="3" fill="#fbe08a" stroke="#3a2610" stroke-width="1.5" stroke-opacity=".6"/><rect x="82" y="314" width="18" height="14" rx="3" fill="#fbe08a" stroke="#3a2610" stroke-width="1.5" stroke-opacity=".6"/><rect x="116" y="314" width="18" height="14" rx="3" fill="#fbe08a" stroke="#3a2610" stroke-width="1.5" stroke-opacity=".6"/><rect x="150" y="314" width="18" height="14" rx="3" fill="#fbe08a" stroke="#3a2610" stroke-width="1.5" stroke-opacity=".6"/><rect x="184" y="314" width="18" height="14" rx="3" fill="#fbe08a" stroke="#3a2610" stroke-width="1.5" stroke-opacity=".6"/><rect x="218" y="314" width="18" height="14" rx="3" fill="#fbe08a" stroke="#3a2610" stroke-width="1.5" stroke-opacity=".6"/><rect x="252" y="314" width="18" height="14" rx="3" fill="#fbe08a" stroke="#3a2610" stroke-width="1.5" stroke-opacity=".6"/><rect x="286" y="314" width="18" height="14" rx="3" fill="#fbe08a" stroke="#3a2610" stroke-width="1.5" stroke-opacity=".6"/><rect x="320" y="314" width="18" height="14" rx="3" fill="#fbe08a" stroke="#3a2610" stroke-width="1.5" stroke-opacity=".6"/></g><rect x="0" y="350" width="360" height="260" fill="#c9d6c6"/><rect x="20" y="392" width="40" height="18" rx="5" fill="#b6c6b4" opacity=".7"/><rect x="64" y="392" width="40" height="18" rx="5" fill="#b6c6b4" opacity=".7"/><rect x="108" y="392" width="40" height="18" rx="5" fill="#b6c6b4" opacity=".7"/><rect x="152" y="392" width="40" height="18" rx="5" fill="#b6c6b4" opacity=".7"/><rect x="196" y="392" width="40" height="18" rx="5" fill="#b6c6b4" opacity=".7"/><rect x="240" y="392" width="40" height="18" rx="5" fill="#b6c6b4" opacity=".7"/><rect x="284" y="392" width="40" height="18" rx="5" fill="#b6c6b4" opacity=".7"/><rect x="328" y="392" width="40" height="18" rx="5" fill="#b6c6b4" opacity=".7"/><rect x="372" y="392" width="40" height="18" rx="5" fill="#b6c6b4" opacity=".7"/><rect x="416" y="392" width="40" height="18" rx="5" fill="#b6c6b4" opacity=".7"/><rect x="-2" y="414" width="40" height="18" rx="5" fill="#b6c6b4" opacity=".7"/><rect x="42" y="414" width="40" height="18" rx="5" fill="#b6c6b4" opacity=".7"/><rect x="86" y="414" width="40" height="18" rx="5" fill="#b6c6b4" opacity=".7"/><rect x="130" y="414" width="40" height="18" rx="5" fill="#b6c6b4" opacity=".7"/><rect x="174" y="414" width="40" height="18" rx="5" fill="#b6c6b4" opacity=".7"/><rect x="218" y="414" width="40" height="18" rx="5" fill="#b6c6b4" opacity=".7"/><rect x="262" y="414" width="40" height="18" rx="5" fill="#b6c6b4" opacity=".7"/><rect x="306" y="414" width="40" height="18" rx="5" fill="#b6c6b4" opacity=".7"/><rect x="350" y="414" width="40" height="18" rx="5" fill="#b6c6b4" opacity=".7"/><rect x="394" y="414" width="40" height="18" rx="5" fill="#b6c6b4" opacity=".7"/><rect x="20" y="436" width="40" height="18" rx="5" fill="#b6c6b4" opacity=".7"/><rect x="64" y="436" width="40" height="18" rx="5" fill="#b6c6b4" opacity=".7"/><rect x="108" y="436" width="40" height="18" rx="5" fill="#b6c6b4" opacity=".7"/><rect x="152" y="436" width="40" height="18" rx="5" fill="#b6c6b4" opacity=".7"/><rect x="196" y="436" width="40" height="18" rx="5" fill="#b6c6b4" opacity=".7"/><rect x="240" y="436" width="40" height="18" rx="5" fill="#b6c6b4" opacity=".7"/><rect x="284" y="436" width="40" height="18" rx="5" fill="#b6c6b4" opacity=".7"/><rect x="328" y="436" width="40" height="18" rx="5" fill="#b6c6b4" opacity=".7"/><rect x="372" y="436" width="40" height="18" rx="5" fill="#b6c6b4" opacity=".7"/><rect x="416" y="436" width="40" height="18" rx="5" fill="#b6c6b4" opacity=".7"/><rect x="-2" y="458" width="40" height="18" rx="5" fill="#b6c6b4" opacity=".7"/><rect x="42" y="458" width="40" height="18" rx="5" fill="#b6c6b4" opacity=".7"/><rect x="86" y="458" width="40" height="18" rx="5" fill="#b6c6b4" opacity=".7"/><rect x="130" y="458" width="40" height="18" rx="5" fill="#b6c6b4" opacity=".7"/><rect x="174" y="458" width="40" height="18" rx="5" fill="#b6c6b4" opacity=".7"/><rect x="218" y="458" width="40" height="18" rx="5" fill="#b6c6b4" opacity=".7"/><rect x="262" y="458" width="40" height="18" rx="5" fill="#b6c6b4" opacity=".7"/><rect x="306" y="458" width="40" height="18" rx="5" fill="#b6c6b4" opacity=".7"/><rect x="350" y="458" width="40" height="18" rx="5" fill="#b6c6b4" opacity=".7"/><rect x="394" y="458" width="40" height="18" rx="5" fill="#b6c6b4" opacity=".7"/><rect x="20" y="480" width="40" height="18" rx="5" fill="#b6c6b4" opacity=".7"/><rect x="64" y="480" width="40" height="18" rx="5" fill="#b6c6b4" opacity=".7"/><rect x="108" y="480" width="40" height="18" rx="5" fill="#b6c6b4" opacity=".7"/><rect x="152" y="480" width="40" height="18" rx="5" fill="#b6c6b4" opacity=".7"/><rect x="196" y="480" width="40" height="18" rx="5" fill="#b6c6b4" opacity=".7"/><rect x="240" y="480" width="40" height="18" rx="5" fill="#b6c6b4" opacity=".7"/><rect x="284" y="480" width="40" height="18" rx="5" fill="#b6c6b4" opacity=".7"/><rect x="328" y="480" width="40" height="18" rx="5" fill="#b6c6b4" opacity=".7"/><rect x="372" y="480" width="40" height="18" rx="5" fill="#b6c6b4" opacity=".7"/><rect x="416" y="480" width="40" height="18" rx="5" fill="#b6c6b4" opacity=".7"/><rect x="-2" y="502" width="40" height="18" rx="5" fill="#b6c6b4" opacity=".7"/><rect x="42" y="502" width="40" height="18" rx="5" fill="#b6c6b4" opacity=".7"/><rect x="86" y="502" width="40" height="18" rx="5" fill="#b6c6b4" opacity=".7"/><rect x="130" y="502" width="40" height="18" rx="5" fill="#b6c6b4" opacity=".7"/><rect x="174" y="502" width="40" height="18" rx="5" fill="#b6c6b4" opacity=".7"/><rect x="218" y="502" width="40" height="18" rx="5" fill="#b6c6b4" opacity=".7"/><rect x="262" y="502" width="40" height="18" rx="5" fill="#b6c6b4" opacity=".7"/><rect x="306" y="502" width="40" height="18" rx="5" fill="#b6c6b4" opacity=".7"/><rect x="350" y="502" width="40" height="18" rx="5" fill="#b6c6b4" opacity=".7"/><rect x="394" y="502" width="40" height="18" rx="5" fill="#b6c6b4" opacity=".7"/><rect x="0" y="364" width="360" height="9" fill="#7c6b5e"/><rect x="0" y="372" width="9" height="6" fill="#5b4a3e"/><rect x="18" y="372" width="9" height="6" fill="#5b4a3e"/><rect x="36" y="372" width="9" height="6" fill="#5b4a3e"/><rect x="54" y="372" width="9" height="6" fill="#5b4a3e"/><rect x="72" y="372" width="9" height="6" fill="#5b4a3e"/><rect x="90" y="372" width="9" height="6" fill="#5b4a3e"/><rect x="108" y="372" width="9" height="6" fill="#5b4a3e"/><rect x="126" y="372" width="9" height="6" fill="#5b4a3e"/><rect x="144" y="372" width="9" height="6" fill="#5b4a3e"/><rect x="162" y="372" width="9" height="6" fill="#5b4a3e"/><rect x="180" y="372" width="9" height="6" fill="#5b4a3e"/><rect x="198" y="372" width="9" height="6" fill="#5b4a3e"/><rect x="216" y="372" width="9" height="6" fill="#5b4a3e"/><rect x="234" y="372" width="9" height="6" fill="#5b4a3e"/><rect x="252" y="372" width="9" height="6" fill="#5b4a3e"/><rect x="270" y="372" width="9" height="6" fill="#5b4a3e"/><rect x="288" y="372" width="9" height="6" fill="#5b4a3e"/><rect x="306" y="372" width="9" height="6" fill="#5b4a3e"/><rect x="324" y="372" width="9" height="6" fill="#5b4a3e"/><rect x="342" y="372" width="9" height="6" fill="#5b4a3e"/><rect x="360" y="372" width="9" height="6" fill="#5b4a3e"/></svg>