<svg xmlns="http://www.w3.org/2000/svg" viewBox="0 0 360 600" width="360" height="600" ><defs><linearGradient id="sky" x1="0" y1="0" x2="0" y2="1"><stop offset="0" stop-color="#1b1442"/><stop offset=".6" stop-color="#34307a"/><stop offset="1" stop-color="#5b4a96"/></linearGradient>
<radialGradient id="pl" cx=".35" cy=".3" r=".8"><stop offset="0" stop-color="#ffd7a8"/><stop offset="1" stop-color="#c96a8e"/></radialGradient>
<radialGradient id="ea" cx=".35" cy=".3" r=".8"><stop offset="0" stop-color="#9ee0ff"/><stop offset="1" stop-color="#2a6fb5"/></radialGradient>
<linearGradient id="moon" x1="0" y1="0" x2="0" y2="1"><stop offset="0" stop-color="#a08ccf"/><stop offset=".45" stop-color="#7a66ab"/><stop offset="1" stop-color="#43347a"/></linearGradient>
<linearGradient id="dome" x1="0" y1="0" x2="1" y2="1"><stop offset="0" stop-color="#f1ecfa"/><stop offset="1" stop-color="#9d92c4"/></linearGradient><filter id="wob" x="-5%" y="-5%" width="110%" height="110%"><feTurbulence type="fractalNoise" baseFrequency=".035" numOctaves="2" seed="4" result="n"/><feDisplacementMap in="SourceGraphic" in2="n" scale="3.2"/></filter></defs><path d="M-10,2330 L-10,328.5 C36.0,328.5 36.0,331.9 72.0,331.9 C108.0,331.9 108.0,343.6 144.0,343.6 C180.0,343.6 180.0,328.9 216.0,328.9 C252.0,328.9 252.0,330.3 288.0,330.3 C324.0,330.3 324.0,332.8 360.0,332.8 L370,2330 Z" fill="url(#moon)" stroke="#3a2610" stroke-width="2" stroke-linejoin="round" stroke-opacity=".5"/><ellipse cx="60" cy="380" rx="28" ry="8" fill="#4d3c80" opacity=".55"/><path d="M32,380 a28,8 0 0 1 56,0" fill="none" stroke="#d6c9f0" stroke-width="2.5" opacity=".6"/><ellipse cx="230" cy="430" rx="38" ry="11" fill="#4d3c80" opacity=".55"/><path d="M192,430 a38,11 0 0 1 76,0" fill="none" stroke="#d6c9f0" stroke-width="2.5" opacity=".6"/><ellipse cx="320" cy="372" rx="20" ry="6" fill="#4d3c80" opacity=".55"/><path d="M300,372 a20,6 0 0 1 40,0" fill="none" stroke="#d6c9f0" stroke-width="2.5" opacity=".6"/><ellipse cx="130" cy="480" rx="26" ry="8" fill="#4d3c80" opacity=".55"/><path d="M104,480 a26,8 0 0 1 52,0" fill="none" stroke="#d6c9f0" stroke-width="2.5" opacity=".6"/><ellipse cx="300" cy="500" rx="24" ry="7" fill="#4d3c80" opacity=".55"/><path d="M276,500 a24,7 0 0 1 48,0" fill="none" stroke="#d6c9f0" stroke-width="2.5" opacity=".6"/><ellipse cx="40" cy="470" rx="16" ry="5" fill="#4d3c80" opacity=".55"/><path d="M24,470 a16,5 0 0 1 32,0" fill="none" stroke="#d6c9f0" stroke-width="2.5" opacity=".6"/><g filter="url(#wob)"><rect x="205" y="318" width="110" height="26" rx="5" fill="#8a7cb8" stroke="#3a2610" stroke-width="2.5" stroke-opacity=".7"/><path d="M215,318 a45,45 0 0 1 90,0Z" fill="url(#dome)" stroke="#3a2610" stroke-width="2.5" stroke-opacity=".7"/><rect x="228" y="326" width="9" height="9" rx="2" fill="#ffe08a"/><rect x="250" y="326" width="9" height="9" rx="2" fill="#ffe08a"/><rect x="272" y="326" width="9" height="9" rx="2" fill="#ffe08a"/><rect x="292" y="326" width="9" height="9" rx="2" fill="#ffe08a"/><path d="M232,309 q6,-18 28,-20" fill="none" stroke="#fff" opacity=".6" stroke-width="3"/><path d="M290,274 V300" stroke="#3a2610" stroke-width="3"/><circle cx="290" cy="272" r="4" fill="#ff7c9a"/><path d="M273,284 q17,-18 34,0" fill="none" stroke="#e8e0f6" stroke-width="3.5"/></g></svg>