<svg xmlns="http://www.w3.org/2000/svg" viewBox="0 0 240 128" aria-hidden="true" focusable="false"><rect width="240" height="128" rx="14" fill="#DFF1F2"/><circle cx="204" cy="23" r="12" fill="#FFE5A1"/><path d="M0 89Q35 77 68 89T137 89T205 89T260 89V128H0Z" fill="#86C4CC"/><path d="M10 110q13-6 26 0m18 6q13-6 26 0m78-6q13-6 26 0m16 6q13-6 26 0" stroke="#1F6F7F" stroke-width="2" fill="none"/><g stroke="#3B2417" stroke-width="3" stroke-linejoin="round" stroke-linecap="round"><path d="M124 86h84l-12 17h-60Z" fill="#F5C476"/><path d="M170 86V56" fill="none"/><path d="M171 56l25 26h-25Z" fill="#FFF8E8"/><path d="M24 85V21h76v11" fill="none"/><circle cx="100" cy="38" r="7" fill="#F7DCA5"/><path d="M100 32v30" fill="none"/><path d="M82 62h34l-5 19H87Z" fill="#E8B57E"/><path d="M85 68h28m-22-5v16m9-16v16m9-16v16" fill="none" stroke-width="2"/><path d="M52 76q12-12 26 0-14 12-26 0l-8-6v12Z" fill="#9ED2D9"/><circle cx="71" cy="74" r="2" fill="#3B2417" stroke="none"/><path d="M8 86h99v10H8Z" fill="#D5A26B"/><path d="M24 96v25m62-25v25M8 91h99" fill="none"/></g></svg>
