<svg xmlns="http://www.w3.org/2000/svg" viewBox="0 0 360 420" width="360" height="420"><defs><radialGradient id="hz1" cx="0.5" cy="0.5" r="0.5"><stop offset="0" stop-color="#df84a5" stop-opacity="0.35"/><stop offset="1" stop-color="#df84a5" stop-opacity="0"/></radialGradient><radialGradient id="hz2" cx="0.5" cy="0.5" r="0.5"><stop offset="0" stop-color="#a23e8c" stop-opacity="0.4"/><stop offset="1" stop-color="#a23e8c" stop-opacity="0"/></radialGradient></defs><circle cx="163.8" cy="98.7" r="1" fill="#ebede9" opacity="0.5533245442698044" /><circle cx="300.7" cy="38.8" r="1.3" fill="#ebede9" opacity="0.5640934562939943" /><circle cx="218.7" cy="38.2" r="1" fill="#ebede9" opacity="0.48653056818103646" /><circle cx="40.8" cy="139.2" r="1.3" fill="#ebede9" opacity="0.6355037522975069" /><circle cx="212.4" cy="72.2" r="1" fill="#ebede9" opacity="0.6442651400902282" /><circle cx="219.3" cy="33.5" r="0.8" fill="#ebede9" opacity="0.7242657314074902" /><circle cx="31.5" cy="13.8" r="0.8" fill="#ebede9" opacity="0.6198281382287827" /><circle cx="274.6" cy="60.9" r="1.3" fill="#ebede9" opacity="0.7290922078333395" /><circle cx="186.5" cy="111.7" r="1" fill="#ebede9" opacity="0.35206719747261916" /><circle cx="38.9" cy="114.1" r="1" fill="#ebede9" opacity="0.798945290208388" /><circle cx="348.5" cy="144.1" r="1.3" fill="#ebede9" opacity="0.46429763430263654" /><circle cx="267.7" cy="91.1" r="0.8" fill="#ebede9" opacity="0.38160057480196663" /><circle cx="270.5" cy="72.9" r="1" fill="#ebede9" opacity="0.5239310892676705" /><circle cx="335.7" cy="145.3" r="0.8" fill="#ebede9" opacity="0.44607575531581667" /><circle cx="325.2" cy="16.5" r="1" fill="#ebede9" opacity="0.7911615235284315" /><circle cx="145.1" cy="19.8" r="1.3" fill="#ebede9" opacity="0.43932056017465804" /><circle cx="239.5" cy="62.6" r="1" fill="#ebede9" opacity="0.49966353145850656" /><circle cx="337.8" cy="130.8" r="0.8" fill="#ebede9" opacity="0.4105684109842373" /><circle cx="250.4" cy="9.8" r="1" fill="#ebede9" opacity="0.7086596803297884" /><circle cx="70.4" cy="98.6" r="1" fill="#ebede9" opacity="0.5789894479200839" /><circle cx="345.0" cy="132.7" r="1" fill="#ebede9" opacity="0.6396718056700252" /><circle cx="49.6" cy="76.2" r="0.8" fill="#ebede9" opacity="0.3502119088277797" /><ellipse cx="90" cy="170" rx="190" ry="90" fill="url(#hz1)" opacity="1" /><ellipse cx="300" cy="120" rx="170" ry="70" fill="url(#hz2)" opacity="1" /><g fill="#ebede9" opacity=".16" transform="translate(60,60) scale(1)"><ellipse rx="40" ry="10"/><ellipse cx="-14" cy="-8" rx="18" ry="11"/><ellipse cx="12" cy="-10" rx="22" ry="13"/></g><g fill="#ebede9" opacity=".16" transform="translate(250,36) scale(0.8)"><ellipse rx="40" ry="10"/><ellipse cx="-14" cy="-8" rx="18" ry="11"/><ellipse cx="12" cy="-10" rx="22" ry="13"/></g><g fill="#ebede9" opacity=".16" transform="translate(320,110) scale(0.6)"><ellipse rx="40" ry="10"/><ellipse cx="-14" cy="-8" rx="18" ry="11"/><ellipse cx="12" cy="-10" rx="22" ry="13"/></g></svg>